HIERARCHY
ROOT Hips
{
	OFFSET 0.00000 0.00000 0.00000
	CHANNELS 6 Xposition Yposition Zposition Zrotation Yrotation Xrotation 
	JOINT LHipJoint
	{
		OFFSET 0 0 0
		CHANNELS 3 Zrotation Yrotation Xrotation
		JOINT LeftUpLeg
		{
			OFFSET 1.53139 -1.83434 0.76626
			CHANNELS 3 Zrotation Yrotation Xrotation
			JOINT LeftLeg
			{
				OFFSET 2.56112 -7.03663 0.00000
				CHANNELS 3 Zrotation Yrotation Xrotation
				JOINT LeftFoot
				{
					OFFSET 2.59983 -7.14299 0.00000
					CHANNELS 3 Zrotation Yrotation Xrotation
					JOINT LeftToeBase
					{
						OFFSET 0.13742 -0.37757 2.00054
						CHANNELS 3 Zrotation Yrotation Xrotation
						End Site
						{
							OFFSET 0.00000 -0.00000 1.02897
						}
					}
				}
			}
		}
	}
	JOINT RHipJoint
	{
		OFFSET 0 0 0
		CHANNELS 3 Zrotation Yrotation Xrotation
		JOINT RightUpLeg
		{
			OFFSET -1.40122 -1.83435 0.76627
			CHANNELS 3 Zrotation Yrotation Xrotation
			JOINT RightLeg
			{
				OFFSET -2.54052 -6.98003 0.00000
				CHANNELS 3 Zrotation Yrotation Xrotation
				JOINT RightFoot
				{
					OFFSET -2.63179 -7.23079 0.00000
					CHANNELS 3 Zrotation Yrotation Xrotation
					JOINT RightToeBase
					{
						OFFSET -0.24131 -0.66299 2.03908
						CHANNELS 3 Zrotation Yrotation Xrotation
						End Site
						{
							OFFSET -0.00000 -0.00000 1.07391
						}
					}
				}
			}
		}
	}
	JOINT LowerBack
	{
		OFFSET 0 0 0
		CHANNELS 3 Zrotation Yrotation Xrotation
		JOINT Spine
		{
			OFFSET 0.01174 2.10302 -0.29778
			CHANNELS 3 Zrotation Yrotation Xrotation
			JOINT Spine1
			{
				OFFSET 0.00772 2.13227 -0.01247
				CHANNELS 3 Zrotation Yrotation Xrotation
				JOINT Neck
				{
					OFFSET 0 0 0
					CHANNELS 3 Zrotation Yrotation Xrotation
					JOINT Neck1
					{
						OFFSET -0.09219 1.60848 0.31481
						CHANNELS 3 Zrotation Yrotation Xrotation
						JOINT Head
						{
							OFFSET 0.13974 1.65456 -0.31134
							CHANNELS 3 Zrotation Yrotation Xrotation
							End Site
							{
								OFFSET 0.04742 1.69515 -0.14578
							}
						}
					}
				}
				JOINT LeftShoulder
				{
					OFFSET 0 0 0
					CHANNELS 3 Zrotation Yrotation Xrotation
					JOINT LeftArm
					{
						OFFSET 3.24909 1.02882 -0.23993
						CHANNELS 3 Zrotation Yrotation Xrotation
						JOINT LeftForeArm
						{
							OFFSET 5.32955 -0.00000 -0.00000
							CHANNELS 3 Zrotation Yrotation Xrotation
							JOINT LeftHand
							{
								OFFSET 3.69232 -0.00000 -0.00000
								CHANNELS 3 Zrotation Yrotation Xrotation
								JOINT LeftFingerBase
								{
									OFFSET 0 0 0
									CHANNELS 3 Zrotation Yrotation Xrotation
									JOINT LeftHandIndex1
									{
										OFFSET 0.53660 -0.00000 -0.00000
										CHANNELS 3 Zrotation Yrotation Xrotation
										End Site
										{
											OFFSET 0.43262 -0.00000 -0.00000
										}
									}
								}
								JOINT LThumb
								{
									OFFSET 0 0 0
									CHANNELS 3 Zrotation Yrotation Xrotation
									End Site
									{
										OFFSET 0.43922 -0.00000 0.43922
									}
								}
							}
						}
					}
				}
				JOINT RightShoulder
				{
					OFFSET 0 0 0
					CHANNELS 3 Zrotation Yrotation Xrotation
					JOINT RightArm
					{
						OFFSET -3.21387 0.93002 -0.34594
						CHANNELS 3 Zrotation Yrotation Xrotation
						JOINT RightForeArm
						{
							OFFSET -5.23431 -0.00000 0.00000
							CHANNELS 3 Zrotation Yrotation Xrotation
							JOINT RightHand
							{
								OFFSET -3.55301 -0.00000 -0.00000
								CHANNELS 3 Zrotation Yrotation Xrotation
								JOINT RightFingerBase
								{
									OFFSET 0 0 0
									CHANNELS 3 Zrotation Yrotation Xrotation
									JOINT RightHandIndex1
									{
										OFFSET -0.77252 -0.00000 -0.00000
										CHANNELS 3 Zrotation Yrotation Xrotation
										End Site
										{
											OFFSET -0.62283 -0.00000 -0.00000
										}
									}
								}
								JOINT RThumb
								{
									OFFSET 0 0 0
									CHANNELS 3 Zrotation Yrotation Xrotation
									End Site
									{
										OFFSET -0.63234 -0.00000 0.63234
									}
								}
							}
						}
					}
				}
			}
		}
	}
}
MOTION
Frames: 16
Frame Time: .0083333
8.1425 17.6545 -15.4281 0 0 0 0 0 0 -21 0 0 0 0 0 0 0 0 0 0 0 0 0 0 21 0 0 0 0 0 0 0 0 0 0 0 0 0 0 0 0 0 0 0 0 0 0 -16 0 0 21 0 0 11 0 0 0 -8 0 0 0 0 0 0 0 0 0 0 0 0 0 0 0 0 0 0 0 0 8 0 0 0 0 0 0 0 0 0 0 0 0 0 0 0 0 0
8.1425 17.6545 -15.4281 148.7750 85.2970 146.9770 0.0000 0.0000 0.0000 -15.1266 -5.2783 2.3444 1.1571 6.8293 19.2108 0.5452 -1.0590 -13.6236 1.5134 -7.7690 -22.0148 0.0000 0.0000 0.0000 2.2152 6.6525 -4.5412 -2.3896 -9.6344 27.8008 -0.3750 1.8958 -11.0643 -0.4827 4.4553 -12.3614 -7.3819 -1.0871 9.2179 -0.2168 -2.2014 0.3323 4.2071 -0.9197 -4.5606 -15.8109 -13.0944 -5.5620 11.3885 -18.9993 33.6587 4.4079 -8.5692 15.5716 0.0000 0.0000 0.0000 -83.5293 5.8667 8.9395 12.8766 -21.1062 -2.4087 -0.0000 -0.0000 8.4697 18.8934 25.9587 8.5201 -7.1250 0.0000 -0.0000 -12.0542 56.8002 -3.5214 0.0000 0.0000 0.0000 91.1506 -3.1411 10.0197 -16.7978 26.5905 -3.9964 0.0000 0.0000 6.1871 -19.1169 7.2084 -2.4904 7.1250 -0.0000 -0.0000 5.6089 -22.3672 3.0668
8.1570 17.6399 -15.3259 151.2670 85.1700 149.4540 0.0000 0.0000 0.0000 -14.6925 -5.8437 2.4017 1.1884 6.9178 19.4720 0.5422 -0.7867 -13.6610 1.5696 -7.9052 -22.4264 0.0000 0.0000 0.0000 2.6470 6.2432 -4.5669 -2.4072 -9.6673 27.9058 -0.4163 2.3616 -11.6017 -0.2911 3.4697 -9.5894 -7.2746 -1.0981 9.2943 -0.2208 -2.2128 0.3118 4.1471 -0.9245 -4.6278 -15.8475 -13.1318 -5.4478 11.4921 -19.0914 33.6158 4.4447 -8.6064 15.5635 -0.0000 -0.0000 0.0000 -83.4036 5.9547 8.7403 12.9787 -21.2560 -2.4456 -0.0000 -0.0000 8.6939 16.7807 25.7488 7.4633 -7.1250 0.0000 -0.0000 -14.1409 56.1541 -3.9241 -0.0000 -0.0000 0.0000 91.3220 -3.2106 10.4045 -16.8309 26.6343 -4.0112 0.0000 0.0000 6.9500 -19.9717 6.6210 -2.3994 7.1250 -0.0000 -0.0000 4.9876 -22.9464 2.6582
8.1743 17.6347 -15.2208 153.3420 84.9623 151.5800 0.0000 0.0000 0.0000 -14.2982 -6.2956 2.4670 1.2024 6.9570 19.5881 0.5226 -0.5871 -13.4661 1.5631 -7.8896 -22.3793 0.0000 0.0000 0.0000 3.0936 5.6115 -4.7994 -2.4437 -9.7349 28.1223 -0.4589 2.4710 -12.1838 -0.3813 3.9659 -10.9806 -7.2351 -1.1102 9.3112 -0.2246 -2.2299 0.2545 4.1248 -0.9300 -4.6972 -16.0197 -13.1183 -5.3228 11.6395 -19.0988 33.6046 4.5412 -8.6184 15.5782 0.0000 -0.0000 0.0000 -83.3084 5.9895 8.5147 13.0250 -21.3238 -2.4624 -0.0000 -0.0000 8.9968 17.6377 25.7127 7.8539 -7.1250 0.0000 -0.0000 -13.2367 56.2941 -3.7118 0.0000 -0.0000 0.0000 91.3344 -3.3152 10.9894 -16.8300 26.6331 -4.0108 0.0000 0.0000 7.0835 -20.3323 6.2494 -2.3099 7.1250 -0.0000 -0.0000 4.7249 -23.3239 2.4762
8.1910 17.6288 -15.1175 154.8020 84.7144 153.0970 0.0000 0.0000 0.0000 -13.9649 -6.7068 2.4619 1.2212 7.0092 19.7427 0.4917 -0.4049 -13.1136 1.4276 -7.5552 -21.3709 0.0000 0.0000 0.0000 3.4971 5.0077 -4.9938 -2.4740 -9.7904 28.3006 -0.5025 2.4085 -12.7797 -0.4711 4.4019 -12.2102 -7.1948 -1.1121 9.2714 -0.2572 -2.2260 0.2569 4.0659 -0.9301 -4.6755 -15.9200 -13.0846 -5.2544 11.6747 -19.0669 33.4617 4.5480 -8.5952 15.4756 -0.0000 0.0000 0.0000 -83.2491 5.8775 8.3733 13.0801 -21.4044 -2.4824 -0.0000 -0.0000 9.0071 19.9251 25.7986 8.9651 -7.1250 0.0000 -0.0000 -10.8880 56.8580 -3.1901 -0.0000 0.0000 0.0000 91.3822 -3.3080 11.3516 -16.8808 26.7004 -4.0336 0.0000 0.0000 6.7377 -20.2147 6.4280 -2.3606 7.1250 -0.0000 -0.0000 4.8103 -23.1396 2.5416
8.2049 17.6258 -15.0130 156.0570 84.5666 154.3530 0.0000 0.0000 0.0000 -13.5902 -7.0596 2.4575 1.2406 7.0628 19.9016 0.4492 -0.1901 -12.5970 1.2458 -7.0769 -19.9435 0.0000 0.0000 0.0000 3.9688 4.6815 -5.0847 -2.5044 -9.8459 28.4791 -0.5504 2.2483 -13.4236 -0.4801 4.4432 -12.3270 -7.0819 -1.0748 9.3037 -0.3170 -2.1691 0.2604 3.9338 -0.9038 -4.7032 -15.8348 -13.0337 -5.0692 11.8944 -19.0693 33.1608 4.6311 -8.5782 15.3055 0.0000 0.0000 0.0000 -83.1698 5.7856 8.2674 13.1556 -21.5147 -2.5101 -0.0000 -0.0000 8.9374 21.4238 25.8900 9.7220 -7.1250 0.0000 -0.0000 -9.3393 57.2723 -2.8241 0.0000 0.0000 0.0000 91.5918 -3.2971 11.4272 -16.9192 26.7512 -4.0509 0.0000 0.0000 6.5783 -20.1312 6.7561 -2.4693 7.1250 -0.0000 -0.0000 4.8695 -22.7958 2.6116
8.2170 17.6285 -14.9040 158.1310 84.4706 156.3750 0.0000 0.0000 0.0000 -13.1086 -7.3585 2.4189 1.2638 7.1259 20.0888 0.4156 0.2308 -12.2648 1.6298 -8.0483 -22.8609 0.0000 0.0000 0.0000 4.5451 4.1413 -5.1858 -2.5268 -9.8865 28.6099 -0.5973 2.2954 -13.9947 -0.5141 4.5955 -12.7584 -6.9324 -1.0701 9.4373 -0.3003 -2.1576 0.2554 3.8705 -0.8979 -4.7894 -16.0284 -13.0013 -4.8599 12.2093 -19.0921 32.8668 4.7936 -8.5959 15.1928 0.0000 -0.0000 0.0000 -83.1544 5.7820 8.2550 13.3019 -21.7279 -2.5640 -0.0000 -0.0000 8.3797 21.5143 25.8390 9.7488 -7.1250 0.0000 -0.0000 -9.2184 57.2400 -2.7799 0.0000 -0.0000 0.0000 91.6647 -3.2628 11.6110 -16.8773 26.6958 -4.0321 0.0000 0.0000 6.5315 -20.0412 6.8001 -2.4732 7.1250 -0.0000 -0.0000 4.9352 -22.7535 2.6519
8.2275 17.6318 -14.7937 160.5570 84.3804 158.8060 0.0000 0.0000 0.0000 -12.5442 -7.6336 2.1576 1.3085 7.2461 20.4465 0.3906 0.5171 -12.0050 2.0703 -9.0110 -25.8296 0.0000 0.0000 0.0000 5.1504 3.3931 -5.3784 -2.5227 -9.8790 28.5859 -0.6308 2.4793 -14.3617 -0.4681 4.3882 -12.1715 -6.7859 -1.0941 9.5293 -0.2490 -2.1808 0.2272 3.8488 -0.9090 -4.8713 -15.9492 -13.0015 -4.6623 12.2041 -19.1034 32.6241 4.7798 -8.6092 15.0205 0.0000 -0.0000 0.0000 -83.2139 5.7709 7.8565 13.4782 -21.9839 -2.6296 -0.0000 -0.0000 7.8531 20.6836 25.5688 9.2547 -7.1250 0.0000 -0.0000 -9.9748 56.7867 -2.9014 0.0000 -0.0000 0.0000 91.6379 -3.2396 11.9075 -16.8367 26.6420 -4.0139 0.0000 0.0000 6.7106 -19.6708 6.8556 -2.4434 7.1250 -0.0000 -0.0000 5.2067 -22.7125 2.8038
8.2377 17.6319 -14.6814 162.9700 84.4238 161.2380 0.0000 0.0000 0.0000 -11.9211 -7.9406 1.8189 1.3753 7.4214 20.9701 0.3486 0.8515 -11.4945 2.1675 -9.2066 -26.4437 0.0000 0.0000 0.0000 5.8798 3.0527 -5.4603 -2.4966 -9.8318 28.4337 -0.6509 2.3644 -14.6174 -0.3221 3.6481 -10.0886 -6.6111 -1.0281 9.5581 -0.2321 -2.0756 0.2300 3.7560 -0.8601 -4.9019 -15.7117 -13.0973 -4.7553 12.0121 -19.2239 32.8289 4.6385 -8.6399 15.1036 0.0000 0.0000 0.0000 -83.1986 5.6339 7.4936 13.6241 -22.1948 -2.6845 -0.0000 -0.0000 7.8121 20.5250 25.5527 9.1733 -7.1250 0.0000 -0.0000 -10.1351 56.7368 -2.9365 0.0000 0.0000 0.0000 91.6725 -3.1742 12.2532 -16.7859 26.5746 -3.9911 0.0000 0.0000 6.5926 -19.3709 7.1145 -2.4934 7.1250 -0.0000 -0.0000 5.4240 -22.4537 2.9541
8.2501 17.6350 -14.5633 170.7330 84.6329 168.8140 0.0000 0.0000 0.0000 -10.7127 -8.1219 1.6948 1.4556 7.6259 21.5833 0.3276 1.1007 -11.2679 2.2274 -9.3245 -26.8157 0.0000 0.0000 0.0000 7.2799 2.9911 -5.1781 -2.4536 -9.7531 28.1809 -0.6746 2.1352 -14.9345 -0.1277 2.3032 -6.3443 -5.8929 -0.9431 9.7849 -0.0880 -1.8921 0.2739 3.4862 -0.7826 -5.0204 -15.7621 -13.1588 -4.8059 12.0552 -19.3296 33.0511 4.6481 -8.6737 15.2592 0.0000 0.0000 0.0000 -83.0874 5.6261 7.8151 13.8113 -22.4643 -2.7556 -0.0000 -0.0000 7.4827 21.1853 25.9287 9.6185 -7.1250 0.0000 -0.0000 -9.6127 57.2599 -2.9049 0.0000 0.0000 0.0000 91.8172 -3.1140 12.3412 -16.6946 26.4534 -3.9503 0.0000 0.0000 6.5200 -18.9967 7.3208 -2.5118 7.1250 -0.0000 -0.0000 5.6955 -22.2551 3.1292
8.2614 17.6370 -14.4419 183.2220 84.6954 180.9410 0.0000 0.0000 0.0000 -8.9851 -8.1482 1.7430 1.5389 7.8312 22.2025 0.3300 0.9861 -11.2538 2.3329 -9.5275 -27.4598 0.0000 0.0000 0.0000 9.1732 2.9077 -4.6814 -2.4042 -9.6615 27.8875 -0.6987 1.7512 -15.2916 -0.0326 1.1660 -3.2056 -4.8689 -0.9123 10.1534 0.2319 -1.7374 0.3818 3.2335 -0.7257 -5.1480 -15.7382 -13.1704 -4.8057 12.0938 -19.3614 33.0924 4.6566 -8.6768 15.2885 0.0000 0.0000 0.0000 -83.1300 5.6024 7.9561 14.0083 -22.7465 -2.8313 -0.0000 -0.0000 7.1216 21.4351 26.0526 9.7833 -7.1250 0.0000 -0.0000 -9.4049 57.4403 -2.8823 0.0000 0.0000 0.0000 91.8705 -2.9871 12.4136 -16.5766 26.2962 -3.8979 0.0000 0.0000 6.7283 -18.6450 7.4958 -2.5203 7.1250 -0.0000 -0.0000 5.9501 -22.0887 3.2932
8.2676 17.6446 -14.3244 190.8560 84.6221 188.4030 0.0000 0.0000 0.0000 -7.7777 -8.3752 1.6841 1.6157 8.0150 22.7596 0.3055 1.0793 -10.8887 2.2744 -9.4156 -27.1044 0.0000 0.0000 0.0000 10.5666 3.0820 -4.3320 -2.3657 -9.5895 27.6575 -0.7135 1.2210 -15.5893 -0.0058 0.4922 -1.3525 -4.3157 -0.8789 10.3205 0.4534 -1.6205 0.5039 3.1403 -0.6806 -5.1318 -15.5328 -13.2108 -4.9220 11.9719 -19.3992 33.0598 4.5560 -8.6773 15.2583 -0.0000 0.0000 0.0000 -83.2649 5.4264 7.8810 14.2048 -23.0267 -2.9077 -0.0000 -0.0000 6.9115 21.8577 26.3454 10.0940 -7.1250 0.0000 -0.0000 -9.0913 57.8317 -2.8710 -0.0000 0.0000 0.0000 91.8879 -2.7507 12.7019 -16.4763 26.1622 -3.8536 0.0000 0.0000 6.8745 -18.6761 7.6325 -2.5706 7.1250 -0.0000 -0.0000 5.9259 -21.9439 3.2993
8.2741 17.6610 -14.2079 193.8710 84.5770 191.4070 0.0000 0.0000 0.0000 -7.1596 -8.9350 1.6164 1.6763 8.1566 23.1907 0.2593 1.6144 -10.3474 2.1665 -9.2047 -26.4377 0.0000 0.0000 0.0000 11.3898 3.1153 -4.2627 -2.3501 -9.5602 27.5639 -0.7281 0.9861 -15.8171 -0.0028 0.3403 -0.9350 -4.1759 -0.8398 10.4137 0.5693 -1.5481 0.5476 3.1747 -0.6469 -5.1445 -15.6309 -13.2245 -4.9837 12.0604 -19.4244 33.0161 4.5973 -8.6893 15.2834 0.0000 0.0000 0.0000 -83.4493 5.3731 7.8900 14.4909 -23.4321 -3.0206 -0.0000 -0.0000 6.5210 22.2761 26.7478 10.4460 -7.1250 0.0000 -0.0000 -8.8341 58.3360 -2.8963 0.0000 0.0000 0.0000 91.8444 -2.6152 13.1350 -16.4500 26.1270 -3.8420 0.0000 0.0000 6.8596 -18.5006 7.6991 -2.5667 7.1250 -0.0000 -0.0000 6.0528 -21.8830 3.3792
8.2773 17.6731 -14.0928 195.9770 84.5718 193.5000 0.0000 0.0000 0.0000 -6.6430 -9.4046 1.4963 1.7317 8.2834 23.5782 0.2148 2.1508 -9.8193 2.1342 -9.1401 -26.2346 0.0000 0.0000 0.0000 12.0471 2.9335 -4.3147 -2.3449 -9.5503 27.5323 -0.7395 0.8922 -15.9694 -0.0370 1.2416 -3.4139 -4.0522 -0.7514 10.5406 0.6214 -1.4180 0.5539 3.1442 -0.5829 -5.2215 -15.6440 -13.2588 -4.9628 12.1099 -19.4883 33.0121 4.6083 -8.7125 15.2993 -0.0000 0.0000 0.0000 -83.6265 5.3258 7.6630 14.7362 -23.7773 -3.1188 -0.0000 -0.0000 6.6087 22.1012 26.8281 10.3854 -7.1250 0.0000 -0.0000 -9.0648 58.3784 -2.9820 -0.0000 0.0000 0.0000 91.8349 -2.5366 13.1434 -16.3709 26.0209 -3.8072 0.0000 0.0000 7.3270 -17.9567 8.0812 -2.6085 7.1250 -0.0000 -0.0000 6.4428 -21.5117 3.6542
8.2780 17.6807 -13.9824 196.9000 84.5655 194.4490 0.0000 0.0000 0.0000 -6.2056 -9.6371 1.2161 1.7874 8.4084 23.9615 0.1697 2.5649 -9.1670 2.0722 -9.0150 -25.8421 0.0000 0.0000 0.0000 12.6130 2.8698 -4.4144 -2.3418 -9.5444 27.5134 -0.7271 0.4110 -15.9799 -0.1454 2.4575 -6.7718 -3.9353 -0.6712 10.5939 0.5834 -1.3002 0.5829 3.0220 -0.5278 -5.2340 -15.6446 -13.2677 -4.9327 12.3014 -19.5602 32.9621 4.6764 -8.7236 15.3122 -0.0000 0.0000 0.0000 -83.7129 5.2752 7.4152 14.9491 -24.0751 -3.2051 -0.0000 -0.0000 6.8798 22.0239 26.0672 10.0792 -7.1250 0.0000 -0.0000 -8.7786 57.5844 -2.7189 -0.0000 0.0000 0.0000 91.9184 -2.3899 13.1636 -16.2907 25.9132 -3.7721 0.0000 0.0000 7.6043 -17.5135 8.1805 -2.5709 7.1250 -0.0000 -0.0000 6.7622 -21.4312 3.8502
8.2776 17.6858 -13.8720 199.3100 84.5102 196.8310 0.0000 0.0000 0.0000 -5.6590 -9.9240 1.0143 1.8498 8.5459 24.3847 0.1302 3.1049 -8.6895 1.9506 -8.7623 -25.0547 0.0000 0.0000 0.0000 13.3779 2.8698 -4.5069 -2.3328 -9.5273 27.4591 -0.6978 -0.3007 -15.8974 -0.3259 3.6690 -10.1472 -3.6724 -0.6272 10.7433 0.6079 -1.2128 0.6158 2.8893 -0.4892 -5.2948 -15.7249 -13.2539 -4.9311 12.5193 -19.5937 32.9392 4.7754 -8.7234 15.3531 0.0000 0.0000 0.0000 -83.8123 5.2774 7.5573 15.2122 -24.4408 -3.3132 -0.0000 -0.0000 6.4120 22.3883 25.6110 10.0963 -7.1250 0.0000 -0.0000 -8.1756 57.1964 -2.4538 0.0000 0.0000 0.0000 91.9403 -2.2732 13.5669 -16.2514 25.8604 -3.7550 0.0000 0.0000 7.2744 -17.4381 8.0155 -2.5080 7.1250 -0.0000 -0.0000 6.8195 -21.6063 3.8560
